<?xml version="1.0" encoding="UTF-8" standalone="no"?>
<svg
   role="img"
   viewBox="0 0 24 24"
   version="1.1"
   id="svg1"
   sodipodi:docname="Simpleicons-Team-Simple-Apple-podcasts.svg"
   inkscape:version="1.4.1-rc (06eac75fbf, 2025-03-29)"
   inkscape:export-filename="Simpleicons-Team-Simple-Apple-podcasts.png"
   inkscape:export-xdpi="96"
   inkscape:export-ydpi="96"
   xmlns:inkscape="http://www.inkscape.org/namespaces/inkscape"
   xmlns:sodipodi="http://sodipodi.sourceforge.net/DTD/sodipodi-0.dtd"
   xmlns="http://www.w3.org/2000/svg"
   xmlns:svg="http://www.w3.org/2000/svg">
  <defs
     id="defs1" />
  <sodipodi:namedview
     id="namedview1"
     pagecolor="#ffffff"
     bordercolor="#666666"
     borderopacity="1.0"
     inkscape:showpageshadow="2"
     inkscape:pageopacity="0.0"
     inkscape:pagecheckerboard="0"
     inkscape:deskcolor="#d1d1d1"
     inkscape:zoom="23.894317"
     inkscape:cx="2.7621631"
     inkscape:cy="13.915443"
     inkscape:window-width="1920"
     inkscape:window-height="1016"
     inkscape:window-x="1920"
     inkscape:window-y="27"
     inkscape:window-maximized="1"
     inkscape:current-layer="svg1"
     inkscape:export-bgcolor="#ffffff00" />
  <title
     id="title1">Apple Podcasts</title>
  <path
     sodipodi:type="star"
     style="fill:#ffffff;fill-opacity:1;stroke-width:20"
     id="path3"
     inkscape:flatsided="true"
     sodipodi:sides="3"
     sodipodi:cx="1.3908755"
     sodipodi:cy="3.4919851"
     sodipodi:r1="3.6277802"
     sodipodi:r2="2.1261084"
     sodipodi:arg1="0.5880026"
     sodipodi:arg2="1.6352001"
     inkscape:rounded="0"
     inkscape:randomized="0"
     d="M 4.409371,5.5043155 -1.8611016,5.0999138 1.6243569,-0.12827397 Z"
     inkscape:transform-center-x="-0.1131466"
     inkscape:transform-center-y="0.034467215"
     transform="matrix(-0.86162284,0.04695469,-0.05568075,-0.72659287,13.254295,23.589458)" />
  <path
     style="fill:#ffcd32;fill-opacity:1;stroke-width:0.837019"
     d="m 4.4571273,23.940709 c -0.46594,-0.08471 -0.971309,-0.254004 -1.422933,-0.476673 -1.52067,-0.749751 -2.57481795,-2.153931 -2.89665895,-3.858499 -0.06994,-0.370441 -0.07476,-0.856976 -0.07476,-7.552462 0,-6.8271092 0.0036,-7.1757767 0.07866,-7.5750226 0.227251,-1.2091585 0.759464,-2.173134 1.67356595,-3.0312627 0.650471,-0.61064074 1.558315,-1.06931612 2.547203,-1.28693771 0.327284,-0.0720245 0.74282,-0.0761501 7.6699487,-0.0761501 6.925045,0 7.343291,0.004149 7.67965,0.0761899 2.334732,0.50004596 4.002501,2.30985991 4.269524,4.63316141 0.03169,0.2757677 0.04117,2.5687858 0.03113,7.5320538 -0.01438,7.111122 -0.01474,7.136807 -0.103333,7.491321 -0.275421,1.102102 -0.703725,1.870277 -1.473038,2.641933 -0.635687,0.637623 -1.307183,1.050009 -2.131218,1.308844 -0.778602,0.244564 -0.421387,0.234654 -8.309588,0.230541 -5.6700407,-0.003 -7.3088877,-0.01536 -7.5381527,-0.05704 z m 8.8469747,-2.136361 1.344696,-1.966995 -0.609781,-0.01159 c -0.55476,-0.01055 -0.607788,-0.0181 -0.58769,-0.0837 0.08532,-0.278482 0.367984,-2.315797 0.465822,-3.357407 0.04341,-0.462131 0.06347,-0.99493 0.05436,-1.443858 -0.01299,-0.639897 -0.02407,-0.731052 -0.110245,-0.906174 -0.12335,-0.250679 -0.452381,-0.557418 -0.738377,-0.688351 -0.674942,-0.308998 -1.82543,-0.295122 -2.487444,0.03 -0.7331007,0.360036 -0.9010167,0.835234 -0.8075077,2.285229 0.06999,1.085359 0.3238577,3.11913 0.4858507,3.892275 l 0.05458,0.26048 -0.6047667,0.01155 -0.604766,0.01155 1.3695387,2.000637 c 0.753247,1.10035 1.383377,1.985497 1.40029,1.966995 0.01691,-0.0185 0.635863,-0.91879 1.375446,-2.000637 z M 9.2774673,18.99593 c 0.03981,-0.103732 -0.06226,-0.83393 -0.139083,-0.995031 -0.05444,-0.114172 -0.155237,-0.191074 -0.49158,-0.375063 -1.48916,-0.814616 -2.580555,-1.935035 -3.308525,-3.396511 -0.263606,-0.529218 -0.539203,-1.322673 -0.617797,-1.778665 -0.0871,-0.505312 -0.07246,-2.439999 0.0218,-2.8808496 0.209557,-0.9801657 0.722683,-2.0803675 1.356109,-2.9076592 0.270721,-0.3535786 0.891433,-0.9928202 1.246456,-1.2836659 0.975958,-0.7995353 2.194368,-1.3526794 3.3749457,-1.5321864 0.57665,-0.08768 2.242325,-0.060416 2.714368,0.044428 2.578727,0.5727543 4.696463,2.5091868 5.493867,5.0235265 0.221432,0.69821 0.260639,1.0318759 0.260639,2.2181006 0,0.846423 -0.01424,1.112288 -0.07458,1.391872 -0.346121,1.603909 -1.309588,3.166889 -2.584132,4.192095 -0.531909,0.427852 -0.827087,0.626543 -1.281698,0.862738 -0.559212,0.290543 -0.619432,0.387277 -0.669849,1.076005 l -0.02681,0.366196 h 0.123744 c 0.27263,0 1.814128,-0.852714 2.477853,-1.370677 1.579991,-1.23301 2.732836,-3.144479 3.085696,-5.116222 0.08756,-0.489282 0.122379,-1.827175 0.06396,-2.45775 C 20.19192,8.8791487 19.699288,7.503019 19.010306,6.4659728 17.478544,4.1603858 15.163022,2.7937323 12.492514,2.6190807 9.8943773,2.4491622 7.5620313,3.3600523 5.7679313,5.2453449 c -1.080932,1.1358747 -1.762944,2.432655 -2.154347,4.0962887 -0.111857,0.4754427 -0.116005,0.5335777 -0.114321,1.6023914 0.0019,1.226587 0.03998,1.558883 0.270702,2.364579 0.683454,2.386609 2.148156,4.147127 4.411901,5.302941 0.532827,0.272048 0.927816,0.446881 1.016199,0.449797 0.0295,9.73e-4 0.06523,-0.02846 0.07941,-0.06541 z m -0.389827,-3.433215 c 0.01464,-0.106794 0.02661,-0.388217 0.02661,-0.625383 V 14.506119 L 8.6910423,14.24217 c -0.696373,-0.823483 -1.060187,-1.538842 -1.223744,-2.406218 -0.103502,-0.548891 -0.06497,-1.450989 0.08368,-1.9591267 0.520049,-1.7777123 1.877644,-2.9888392 3.7058597,-3.3060397 0.511397,-0.088729 0.938314,-0.084462 1.444925,0.014442 1.226753,0.2394946 2.110781,0.7821902 2.831989,1.7385281 0.604564,0.8016646 0.913672,1.7235343 0.913672,2.7248963 0,1.180267 -0.380676,2.126029 -1.287205,3.197971 l -0.226987,0.268405 0.01424,0.596581 c 0.0078,0.328119 0.02798,0.610294 0.04478,0.627053 0.08215,0.08197 0.921617,-0.633796 1.298914,-1.107501 0.658884,-0.827245 1.017055,-1.618432 1.204994,-2.661787 C 17.662664,11.045015 17.56407,9.9392223 17.240544,9.1025831 16.570708,7.3703644 15.09969,6.02553 13.360893,5.5557287 12.975075,5.4514855 12.898206,5.4453535 11.948446,5.4430551 c -1.322553,-0.0032 -1.613875,0.055757 -2.5110577,0.5081827 -1.237313,0.6239459 -2.247786,1.683995 -2.755981,2.8911963 -0.255054,0.6058759 -0.35437,1.0125602 -0.402852,1.6496249 -0.0468,0.614961 0.0013,1.439188 0.109158,1.870127 0.23722,0.947886 0.890439,2.100349 1.549313,2.733428 0.209873,0.201657 0.81738,0.658776 0.877372,0.66018 0.02564,6e-4 0.0586,-0.08629 0.07324,-0.193079 z m 3.3328387,-3.28066 c 1.131435,-0.176434 1.889493,-1.288426 1.609957,-2.3616397 -0.163167,-0.6264374 -0.675674,-1.2171908 -1.243301,-1.4331196 -0.259557,-0.098737 -1.070034,-0.099959 -1.350153,-0.00204 -0.506453,0.1770442 -1.045322,0.7395843 -1.21274,1.2660131 -0.1645657,0.5174592 -0.06339,1.2609742 0.23236,1.7074682 0.314144,0.474271 0.971638,0.826358 1.608144,0.861158 0.04604,0.0025 0.206116,-0.01451 0.355733,-0.03784 z"
     id="path8" />
  <path
     style="fill:#ffffff;fill-opacity:1;stroke-width:0.837019"
     d="m 11.462636,23.136029 c -0.2392,-0.337913 -0.842827,-1.208936 -1.341394,-1.935606 l -0.9064848,-1.321219 0.5597405,-0.02294 c 0.3078573,-0.01262 0.5703283,-0.03353 0.5832683,-0.04647 0.01294,-0.01294 -0.02391,-0.285112 -0.08189,-0.604826 -0.248559,-1.370609 -0.4595309,-3.482229 -0.4323061,-4.326958 0.016389,-0.508529 0.030038,-0.591239 0.1365812,-0.827683 0.1689259,-0.374885 0.4775619,-0.613746 1.0224899,-0.791328 0.298672,-0.09733 1.296525,-0.121139 1.645183,-0.03925 0.559765,0.13147 0.979444,0.426646 1.180637,0.830389 0.105339,0.211386 0.107908,0.236806 0.107908,1.067461 0,1.056909 -0.155649,2.595318 -0.421935,4.170336 -0.0462,0.273273 -0.07493,0.505939 -0.06383,0.517036 0.0111,0.0111 0.273188,0.03234 0.582424,0.0472 l 0.562248,0.02703 -1.323414,1.934048 c -0.727878,1.063727 -1.334868,1.93475 -1.348866,1.935607 -0.014,8.57e-4 -0.221161,-0.274916 -0.460361,-0.61283 z"
     id="path12" />
  <path
     style="fill:#ffffff;fill-opacity:1;stroke-width:0.837019"
     d="M 8.3847637,15.428702 C 7.9285463,15.075939 7.5858619,14.710191 7.2979568,14.26875 6.8215123,13.538225 6.5118668,12.842175 6.3773606,12.19935 6.2824508,11.74576 6.2701147,10.450195 6.3562423,9.9814531 6.6751648,8.2457469 7.9478548,6.6693638 9.6860189,5.8571153 10.423985,5.512262 10.563318,5.4889674 11.906597,5.4858661 c 1.169882,-0.0027 1.172452,-0.00251 1.548485,0.1146301 1.55786,0.4852999 2.834291,1.5826711 3.551974,3.0536972 0.424079,0.869232 0.550614,1.4988786 0.5177,2.5761206 -0.01821,0.595943 -0.03953,0.767112 -0.146828,1.178495 -0.218096,0.836214 -0.567759,1.531459 -1.107934,2.202934 -0.367196,0.456452 -1.152297,1.139968 -1.244171,1.083188 -0.01657,-0.01024 -0.04176,-0.275818 -0.05597,-0.590167 l -0.02583,-0.571545 0.225951,-0.266339 c 0.910464,-1.073204 1.277451,-1.989891 1.277451,-3.190914 0,-1.044424 -0.252597,-1.8502238 -0.841629,-2.6848493 C 14.793671,7.2403791 13.541923,6.5728893 12.094926,6.5189581 11.28271,6.4886859 10.628457,6.6309086 9.8977511,6.9965844 8.9709649,7.4603871 8.2597216,8.1881564 7.8234976,9.1190343 7.4808151,9.8502997 7.3870063,10.348219 7.4181658,11.270457 c 0.016883,0.499686 0.04153,0.685946 0.1312537,0.991873 0.2012628,0.68624 0.6033392,1.390571 1.164007,2.03903 l 0.2070222,0.239438 -0.026352,0.492954 c -0.029616,0.554006 -0.048687,0.681282 -0.1020833,0.681282 -0.020319,0 -0.2035814,-0.12885 -0.4072497,-0.286332 z"
     id="path13" />
  <path
     style="fill:#ffffff;fill-opacity:1;stroke-width:0.837019"
     d="M 8.6631479,18.81927 C 6.1382372,17.662477 4.5179259,15.823508 3.7892772,13.287679 3.5810783,12.563109 3.5548334,12.35394 3.5288377,11.21201 3.5007245,9.9770625 3.5254407,9.7178272 3.7469194,8.9246662 4.1599224,7.4456174 4.7990088,6.3019404 5.7947937,5.259893 7.8531825,3.1058747 10.648211,2.219132 13.589993,2.7868106 c 2.892281,0.5581264 5.372077,2.764118 6.323426,5.6252316 0.325883,0.980069 0.363636,1.2577049 0.361374,2.6575358 -0.0018,1.107082 -0.01141,1.277988 -0.09314,1.654643 -0.453481,2.089947 -1.755375,4.054209 -3.433725,5.180717 -0.720307,0.483469 -1.931724,1.116322 -2.136882,1.116322 -0.04888,0 -0.02583,-0.421822 0.04287,-0.784388 0.05365,-0.283134 0.169525,-0.39781 0.692147,-0.684957 0.91419,-0.502288 1.977684,-1.450733 2.566144,-2.28854 0.515606,-0.734081 0.914008,-1.580356 1.157663,-2.45908 0.1138,-0.410408 0.115489,-0.434215 0.117128,-1.651015 0.0018,-1.3664954 -0.01718,-1.5349459 -0.257436,-2.280306 C 18.145182,6.4395828 16.159566,4.5748219 13.664337,3.9282186 13.208883,3.8101941 13.190817,3.80892 11.969373,3.8086798 10.920508,3.8084736 10.681253,3.8201483 10.379037,3.8862822 8.8816794,4.2139496 7.5400666,5.0087776 6.4683969,6.2031108 5.6624281,7.1013309 5.0937042,8.1518418 4.7853993,9.3118378 4.6901212,9.6703213 4.6775142,9.8123174 4.6572083,10.755696 c -0.028973,1.346058 0.012256,1.73825 0.2609887,2.48262 0.6265051,1.874912 1.8361256,3.333013 3.5984726,4.337671 0.2301802,0.131218 0.460995,0.279921 0.5129215,0.33045 0.1085183,0.105598 0.2176087,0.552 0.2187437,0.895105 9.215e-4,0.278665 -0.014616,0.279136 -0.5851869,0.01773 z"
     id="path14" />
  <path
     style="fill:#ffffff;fill-opacity:1;stroke-width:0.837019"
     d="m 11.425311,12.225878 c -0.289932,-0.08497 -0.669905,-0.292262 -0.887339,-0.484079 -0.534067,-0.471147 -0.7281118,-1.485874 -0.413478,-2.1622108 0.169626,-0.364628 0.607579,-0.8161987 0.959605,-0.9894426 0.271073,-0.1334044 0.288686,-0.1362518 0.842636,-0.1362196 0.56278,3.26e-5 0.567149,7.775e-4 0.825225,0.1407169 0.364412,0.1975997 0.730687,0.5929275 0.923518,0.9967723 0.151283,0.3168321 0.156263,0.3420016 0.156263,0.7897928 0,0.449458 -0.0044,0.471341 -0.15502,0.774242 -0.233068,0.468651 -0.605033,0.813455 -1.085282,1.006033 -0.279804,0.112201 -0.888344,0.145805 -1.166128,0.06439 z"
     id="path15" />
</svg>
